<svg xmlns="http://www.w3.org/2000/svg" viewBox="0 0 432 120" width="864" height="240" role="img" aria-labelledby="t">
<title id="t">Pictogrammes Le Petit Coin de Paradis</title>
<!-- Sprite de pictogrammes, direction artistique 04.
     Grille 24 × 24, zone utile 20 × 20 (marge 2), trait uniforme 1,5 (soit 1 px à 16 px, 1,5 px à 24 px, 2 px à 32 px),
     extrémités et angles arrondis, couleur héritée (currentColor) : le picto prend la couleur du texte.
     Usage HTML : <svg class="picto" aria-hidden="true"><use href="pictos.svg#picto-phare"/></svg>
     Symboles : picto-phare, picto-goeland, picto-vague, picto-barque, picto-bourriche, picto-algue, picto-abeille, picto-coquille,
     plus picto-hermine (plein, ornement : une seule moucheture par écran). -->
<defs>
<symbol id="picto-phare" viewBox="0 0 24 24" fill="none" stroke="currentColor" stroke-width="1.5" stroke-linecap="round" stroke-linejoin="round">
<path d="M12 2.5V4"/><path d="M10 6.5a2 2 0 0 1 4 0"/><path d="M10 6.5h4v2.5h-4z"/><path d="M8 9h8"/><path d="M8.6 10.6h6.8"/>
<path d="M9.2 10.6V20.5M14.8 10.6V20.5"/><path d="M12 13.2v1.4M12 16.6V18"/><path d="M4.5 20.5h15"/>
<path d="M17.2 6.6l3-1.1M17.2 8l3 1.1M6.8 6.6l-3-1.1M6.8 8l-3 1.1"/>
</symbol>
<symbol id="picto-goeland" viewBox="0 0 24 24" fill="none" stroke="currentColor" stroke-width="1.5" stroke-linecap="round" stroke-linejoin="round">
<path d="M2.5 9.8c3.4-.6 6.5 1.1 8.5 4.4L12 16l1-1.8c2-3.3 5.1-5 8.5-4.4"/><path d="M12 16v1.2"/>
</symbol>
<symbol id="picto-vague" viewBox="0 0 24 24" fill="none" stroke="currentColor" stroke-width="1.5" stroke-linecap="round" stroke-linejoin="round">
<path d="M2.5 16.5c2.6 0 3.8-1.6 5.2-3.7 1.9-2.9 4.4-4.8 7.8-4.8 3 0 5 2 5 4.3 0 1.8-1.4 3.1-3 3.1-1.4 0-2.4-1-2.4-2.2 0-.9.6-1.6 1.4-1.8"/>
<path d="M2.5 20c1.9 0 2.9-1 4.4-1s2.4 1 4.3 1 2.9-1 4.4-1 2.4 1 4.3 1"/>
</symbol>
<symbol id="picto-barque" viewBox="0 0 24 24" fill="none" stroke="currentColor" stroke-width="1.5" stroke-linecap="round" stroke-linejoin="round">
<path d="M2.5 12.5h19l-2.6 5.8a2 2 0 0 1-1.8 1.2H6.9a2 2 0 0 1-1.8-1.2z"/><path d="M4 15.6h16"/><path d="M8.5 12.5V10.5M15.5 12.5V10.5"/><path d="M5.5 6.5l6 6"/>
</symbol>
<symbol id="picto-bourriche" viewBox="0 0 24 24" fill="none" stroke="currentColor" stroke-width="1.5" stroke-linecap="round" stroke-linejoin="round">
<path d="M3 11.5h18"/><path d="M4.5 11.5L6 8.5h12l1.5 3"/><path d="M4.5 11.5l.9 7.2a1.5 1.5 0 0 0 1.5 1.3h10.2a1.5 1.5 0 0 0 1.5-1.3l.9-7.2"/>
<path d="M5 15h14M5.4 17.8h13.2"/><path d="M9 11.5v8.5M15 11.5v8.5"/><path d="M12 8.5V6.2"/><path d="M10.2 4.8c.6.9 3 .9 3.6 0"/>
</symbol>
<symbol id="picto-algue" viewBox="0 0 24 24" fill="none" stroke="currentColor" stroke-width="1.5" stroke-linecap="round" stroke-linejoin="round">
<path d="M12 20.5V9.5c0-2.6 1.4-4.6 3.2-6"/><path d="M12 15.5c-2.2-1-3.7-3.1-3.7-5.6 0-1.4.4-2.6 1.1-3.6"/><path d="M12 12.3c2.3-.4 4.3-2 5.2-4.3"/>
<path d="M12 18.4c-2.6 0-4.7-1-6.2-3.1"/><path d="M12 17c2.6-.2 4.7-1.4 6.2-3.6"/><path d="M7 20.5h10"/>
</symbol>
<symbol id="picto-abeille" viewBox="0 0 24 24" fill="none" stroke="currentColor" stroke-width="1.5" stroke-linecap="round" stroke-linejoin="round">
<rect x="8.5" y="9.5" width="7" height="10" rx="3.5"/><path d="M8.7 13.2h6.6M8.9 16.2h6.2"/><path d="M12 19.5v1.5"/>
<circle cx="12" cy="7.4" r="1.6"/><path d="M11.1 5.9l-1-1.9M12.9 5.9l1-1.9"/>
<path d="M8.6 11.4C6 11.6 3.8 10.4 3.8 8.8s2.3-2.1 4.7-.4"/><path d="M15.4 11.4c2.6.2 4.8-1 4.8-2.6s-2.3-2.1-4.7-.4"/>
</symbol>
<symbol id="picto-coquille" viewBox="0 0 24 24" fill="none" stroke="currentColor" stroke-width="1.5" stroke-linecap="round" stroke-linejoin="round">
<path d="M12 18.5L3.4 9.9C4.9 6 8.2 4 12 4s7.1 2 8.6 5.9z"/><path d="M12 18.5L7.4 5.6M12 18.5L9.6 4.3M12 18.5V4M12 18.5l2.4-14.2M12 18.5l4.6-12.9"/>
<path d="M9.4 18.5h5.2l-.9 2h-3.4z"/>
</symbol>
<symbol id="picto-hermine" viewBox="0 0 24 24" fill="currentColor">
<circle cx="12" cy="4.6" r="1.9"/><circle cx="8.1" cy="7.8" r="1.9"/><circle cx="15.9" cy="7.8" r="1.9"/>
<path d="M12 9.6c-.4 3.6-1.3 7.7-4.8 13.2l2.8-1.2L12 24.5l2-2.9 2.8 1.2c-3.5-5.5-4.4-9.6-4.8-13.2z" transform="translate(0 -2.5)"/>
</symbol>
</defs>
<!-- Planche d'aperçu (le fichier s'ouvre seul dans un navigateur) -->
<rect width="432" height="120" fill="#F7F4EE"/>
<g color="#14506F">
<use href="#picto-phare" x="12" y="20" width="36" height="36"/>
<use href="#picto-goeland" x="64" y="20" width="36" height="36"/>
<use href="#picto-vague" x="116" y="20" width="36" height="36"/>
<use href="#picto-barque" x="168" y="20" width="36" height="36"/>
<use href="#picto-bourriche" x="220" y="20" width="36" height="36"/>
<use href="#picto-algue" x="272" y="20" width="36" height="36"/>
<use href="#picto-abeille" x="324" y="20" width="36" height="36"/>
<use href="#picto-coquille" x="376" y="20" width="36" height="36"/>
</g>
<g color="#7A1F33">
<use href="#picto-phare" x="18" y="72" width="24" height="24"/>
<use href="#picto-goeland" x="70" y="72" width="24" height="24"/>
<use href="#picto-vague" x="122" y="72" width="24" height="24"/>
<use href="#picto-barque" x="174" y="72" width="24" height="24"/>
<use href="#picto-bourriche" x="226" y="72" width="24" height="24"/>
<use href="#picto-algue" x="278" y="72" width="24" height="24"/>
<use href="#picto-abeille" x="330" y="72" width="24" height="24"/>
<use href="#picto-coquille" x="382" y="72" width="24" height="24"/>
</g>
<use href="#picto-hermine" x="410" y="100" width="16" height="16" color="#2B3136"/>
</svg>
